<svg width="690" height="543" viewBox="0 0 690 543" fill="none" xmlns="http://www.w3.org/2000/svg">
<path d="M135.837 329.574C80.1966 326.337 98.0302 294.288 91.309 283.366C84.5877 272.444 76.8168 251.871 96.7433 222.036M135.837 329.574C193.619 353.216 212.334 338.786 231.613 327.054C266.379 306.093 306.343 302.353 324.029 283.366L352.594 266.563M135.837 329.574C129.576 385.091 162.646 396.096 179.279 418.629M558.429 243.039L539.945 222.036L513.901 203.553L455.931 176.668L394.601 148.103L391.339 147.417M558.429 243.039C560.471 232.751 561.292 226.436 566.83 222.036C574.796 217.571 578.389 216.626 583.633 216.995C599.511 215.974 601.412 218.691 607.997 222.036C621.063 229.507 623.446 234.555 630.681 243.039C639.668 255.737 636.562 254.801 640.763 266.563C644.963 278.325 648.342 295.355 646.644 301.009V315.292V327.054L640.763 341.336M558.429 243.039L571.031 263.203M640.763 341.336L651.685 367.381L656.725 391.745V405.187L651.685 418.629M640.763 341.336L630.681 353.938C620.118 359.44 612.997 361.978 591.194 362.34M651.685 418.629L656.725 433.752C683.479 452.735 688.682 464.288 687.811 485.841L681.09 496.763C645.262 509.297 625.536 514.506 591.194 519.446C580.66 526.139 556.016 524.652 539.945 527.008L523.983 525.327L428.206 519.446L418.965 532.049C404.042 541.611 393.269 540.998 373.597 538.77L296.304 508.525C280.844 500.217 274.706 492.571 268.579 473.239C266.148 459.845 267.087 452.395 274.46 438.793L263.538 437.514M651.685 418.629L630.681 427.871L602.78 438.793H573.551L597.915 418.629L619.759 405.187L639.922 395.945L651.685 405.187L578.859 438.793M555.908 266.143L553.388 259.842L539.945 243.039L528.183 232.958C515.265 226.839 508.108 226.642 495.418 229.597C487.066 232.732 483.513 235.651 479.455 243.039L469.373 259.842L455.931 290.087L356.794 367.381V380.823L469.373 301.009C469.373 301.009 469.373 295.87 469.373 277.856C469.373 259.842 482.926 301.584 499.619 313.611C511.317 326.181 518.716 331.869 534.904 337.135C551.615 333.441 555.6 331.195 558.429 327.054C561.746 322.915 563.585 320.367 566.83 315.292V290.087L558.429 272.444L555.908 266.143ZM555.908 266.143L571.031 263.203M571.031 263.203L602.78 277.856L644.963 301.009M451.997 176.668C438.63 182.301 426.714 182.481 403.842 181.709M403.842 181.709C394.627 193.927 388.536 201.333 373.597 216.995L356.794 229.597V266.563L352.594 303.53V362.34V391.745L315.627 418.629L263.538 437.514M403.842 181.709L315.627 194.311H255.977L197.167 243.039L172.803 259.842C172.4 265.845 134.883 255.936 121.554 248.08C115.43 244.471 107.121 235.58 91.309 222.036M263.538 437.514C234.686 439.221 228.902 457.415 181.204 427.871C179.22 423.933 176.163 420.31 179.279 418.629M391.339 147.417C381.736 138.434 372.251 134.565 330.75 134.661C311.048 129.577 298.825 128.326 274.46 129.62C256.704 124.847 244.689 128.755 220.691 143.902C200.607 158.665 196.023 166.943 189.606 181.709C176.808 185.029 171.314 187.218 160.201 203.553C116.043 198.282 106.233 203.37 97.19 216.995L96.7433 222.036M391.339 147.417L339.151 163.226H268.579L189.606 203.553L151.799 229.597C132.762 247.357 119.17 232.779 96.7433 222.036M96.7433 222.036C95.6106 242.797 97.2558 253.208 110.632 266.143C130.586 287.495 141.372 291.414 160.201 290.087C174.63 288.635 222.033 277.773 231.613 278.325C237.918 278.689 279.786 271.563 302.185 248.08L352.594 229.597M179.279 418.629L255.977 380.823L346.713 362.34" stroke="#6B0504" stroke-opacity="0.15" stroke-width="4"/>
<path d="M166.262 53.2583L200.505 100.161L198.342 112.802L184.653 137.318L156.59 148.597L152.108 150.963M166.262 53.2583L158.116 32.9903L118.811 38.8272L90.4266 44.8023L71.4415 74.1635L73.3213 78.8407L48.2305 95.2631L53.2657 121.309L29.4504 154.422L69.2812 183.687L97.9935 187.54M166.262 53.2583L201.733 40.134L221.012 47.552L223.205 53.0088L222.631 83.1199L214.88 113.399L221.896 110.579L230.019 117.274C230.31 129.045 228.911 135.438 221.731 146.217L204.485 148.362L194.955 140.421L192.042 171.472L178.651 187.719L152.147 198.372L103.144 189.091L99.0715 178.957L152.108 150.963M109.038 167.708L90.8885 136.068L117.277 149.91L152.108 150.963M72.7542 113.476L104.884 119.073M85.6336 71.176L90.4489 58.3752L104.16 47.4319L115.547 46.4771L137.702 47.5328L138.958 49.7444M85.6336 71.176L74.1009 78.5274M85.6336 71.176L91.8996 86.7668L82.5452 90.5264L88.9418 90.6719L96.2859 97.6803L104.884 119.073M104.884 119.073C104.936 120.511 108.771 122.096 114.983 123.668M114.983 123.668C130.19 127.516 159.648 131.287 182.773 132.641L178.838 111.586L153.192 74.8093L138.958 49.7444M114.983 123.668L142.111 72.0193L141.05 64.5228M138.958 49.7444L141.05 64.5228M141.05 64.5228C133.636 53.2742 128.375 49.2751 116.174 48.0362M90.5009 90.0453L101.414 85.6591M101.414 85.6591L111.306 76.477C125.071 75.4079 131.337 72.9852 138.978 64.2239M101.414 85.6591C96.1472 81.0395 94.5543 77.6996 93.6783 70.6591M117.542 73.9706C117.542 73.9706 126.505 69.2367 126.345 66.5848C126.185 63.9329 116.369 63.8002 110.739 63.8022L105.282 65.9953L101.385 67.5619L93.6783 70.6591M93.6783 70.6591L103.593 82.0672M109.355 76.1294C109.242 70.4982 110.732 69.2709 116.211 70.6577C113.099 71.4544 111.822 72.1415 112.474 74.8762M133.913 67.3913L126.33 57.5362C118.618 57.3061 114.862 58.3355 109.333 62.5565M120.881 64.2536L130.795 68.6445M75.7714 145.765L96.8413 150.879" stroke="#6B0504" stroke-opacity="0.15" stroke-width="3"/>
</svg>
